<?xml version="1.0" encoding="utf-8"?>
<!-- Generator: Adobe Illustrator 16.0.0, SVG Export Plug-In . SVG Version: 6.00 Build 0)  -->
<!DOCTYPE svg PUBLIC "-//W3C//DTD SVG 1.1//EN" "http://www.w3.org/Graphics/SVG/1.1/DTD/svg11.dtd">
<svg version="1.1" id="Layer_1" xmlns="http://www.w3.org/2000/svg" xmlns:xlink="http://www.w3.org/1999/xlink" x="0px" y="0px"
	 width="1920px" height="1080px" viewBox="0 0 1920 1080" enable-background="new 0 0 1920 1080" xml:space="preserve">
<circle display="none" fill="#FFFFFF" stroke="#FFA500" stroke-width="100" stroke-miterlimit="10" cx="215.24" cy="743.423" r="148.926"/>
<circle display="none" fill="#FFFFFF" stroke="#000000" stroke-width="100" stroke-miterlimit="10" cx="513.091" cy="316.792" r="148.925"/>
<circle display="none" fill="#FFFFFF" stroke="#000000" stroke-width="100" stroke-miterlimit="10" cx="811.732" cy="743.423" r="148.926"/>
<line display="none" fill="none" stroke="#FFA500" stroke-width="100" stroke-miterlimit="10" x1="364" y1="317" x2="364" y2="740"/>
<circle display="none" fill="#FFFFFF" stroke="#000000" stroke-width="100" stroke-miterlimit="10" cx="512.881" cy="316.792" r="148.926"/>
<line display="none" fill="none" stroke="#000000" stroke-width="100" stroke-miterlimit="10" x1="662" y1="323" x2="662" y2="746"/>
<line display="none" fill="none" stroke="#000000" stroke-width="100" stroke-miterlimit="10" x1="960" y1="323" x2="960" y2="746"/>
<circle display="none" fill="#FFFFFF" stroke="#000000" stroke-width="100" stroke-miterlimit="10" cx="810.732" cy="743.423" r="148.926"/>
<circle display="none" fill="#FFFFFF" stroke="#000000" stroke-width="100" stroke-miterlimit="10" cx="1109.583" cy="316.792" r="148.925"/>
<line display="none" fill="none" stroke="#000000" stroke-width="100" stroke-miterlimit="10" x1="1258" y1="323" x2="1258" y2="746"/>
<circle display="none" fill="#FFFFFF" stroke="#000000" stroke-width="100" stroke-miterlimit="10" cx="1408.864" cy="743.423" r="148.926"/>
<circle display="none" fill="#FFFFFF" stroke="#000000" stroke-width="100" stroke-miterlimit="10" cx="1109.013" cy="316.792" r="148.925"/>
<line display="none" fill="none" stroke="#000000" stroke-width="100" stroke-miterlimit="10" x1="1556" y1="323" x2="1556" y2="746"/>
<circle display="none" fill="#FFFFFF" stroke="#000000" stroke-width="100" stroke-miterlimit="10" cx="1406.864" cy="743.423" r="148.926"/>
<circle display="none" fill="#FFFFFF" stroke="#000000" stroke-width="100" stroke-miterlimit="10" cx="1704.715" cy="316.792" r="148.925"/>
<path fill="#FEA22E" d="M414.02,744.98c0,0.859-0.01,1.729-0.02,2.59c0,0.14,0,0.29-0.01,0.43
	c-1.61,109.27-90.63,197.35-200.19,197.35C103.56,945.35,14.13,856.19,13.59,746h101.23c0.54,54.56,44.65,98.62,98.98,98.62
	c54.32,0,98.43-44.061,98.97-98.62H313V570.9c59.65,34.109,100.07,98.04,101,171.489C414.01,743.25,414.02,744.12,414.02,744.98z"/>
<rect x="313" y="314" fill="#FEA22E" width="101" height="434"/>
<path d="M714.21,314.84c0,7.47-0.41,14.85-1.21,22.11c-7.15,65.24-45.6,121.05-100,152.08V312h0.43
	c-1.51-53.72-45.56-96.79-99.7-96.79c-55.08,0-99.73,44.6-99.73,99.63v173.63c-59.91-34.62-100.23-99.41-100.23-173.63
	c0-0.28,0-0.56,0.01-0.84c0.44-110.27,89.91-199.53,200.21-199.53c103.1,0,188.02,78,199.01,178.26
	C713.8,299.99,714.21,307.37,714.21,314.84z"/>
<path fill="#FFFFFF" d="M613.47,314.84c0,3.28-0.16,6.53-0.47,9.73V312h0.43C613.46,312.94,613.47,313.89,613.47,314.84z"/>
<path fill="#FFFFFF" d="M414,742.39c0.01,0.86,0.02,1.73,0.02,2.591c0,0.859-0.01,1.729-0.02,2.59V742.39z"/>
<path fill="#FFFFFF" d="M612.95,748c0-1.38,0.01-2.76,0.05-4.14v8.279C612.96,750.76,612.95,749.38,612.95,748z"/>
<path d="M1013.39,748c0,4.21-0.13,8.39-0.39,12.53c-6.46,104.819-93.45,187.84-199.83,187.84c-109.2,0-197.97-87.48-200.17-196.23
	c-0.04-1.38-0.05-2.76-0.05-4.14s0.01-2.76,0.05-4.14c1.46-72.41,41.3-135.38,100-169.38V748h0.2c0,55.03,44.53,99.64,99.47,99.64
	s99.48-44.609,99.48-99.64H913V574.28c56.6,32.64,95.75,92.189,100,161.189C1013.26,739.61,1013.39,743.79,1013.39,748z"/>
<path d="M1112.35,114.47c-104.25,0-189.879,79.73-199.35,181.57c-0.58,6.19-0.87,12.46-0.87,18.8c0,6.34,0.29,12.61,0.87,18.8
	c6.18,66.52,44.86,123.6,100,155.2V315h1v-0.16c0-55.03,44.33-99.63,99-99.63c54.66,0,99,44.6,99,99.63V315h1v173.08
	c55.71-32.47,94.34-91.11,99.07-159.08c0.33-4.68,0.5-9.4,0.5-14.16C1312.57,204.18,1222.93,114.47,1112.35,114.47z"/>
<path d="M1612.76,744.98c0,5.93-0.26,11.8-0.76,17.6c-8.91,102.42-94.8,182.77-199.46,182.77c-104.99,0-191.1-80.859-199.54-183.739
	c-0.45-5.49-0.68-11.03-0.68-16.63c0-5.601,0.229-11.141,0.68-16.631c5.53-67.369,44.37-125.3,100-157.26V754.48
	c4.75,50.569,47.05,90.14,98.53,90.14c54.67,0,98.979-44.61,98.979-99.64c0-3.37-0.17-6.7-0.49-9.98H1510V569.91
	c56.47,31.55,96.1,89.68,102,157.47C1612.5,733.18,1612.76,739.05,1612.76,744.98z"/>
<path d="M1910.93,315c0,0.005,0,0.011,0,0.017c0.023-0.001,0.047-0.002,0.07-0.003c0-0.004,0-0.009,0-0.013v-0.16
	c0-110.66-89.67-200.37-200.25-200.37c-106.6,0-193.79,83.38-199.91,188.53c-0.22,3.92-0.34,7.87-0.34,11.84
	c0,74.73,40.89,139.91,101.5,174.35V307.8c0-0.1,0.01-0.21,0.02-0.31c3.73-51.6,46.641-92.28,98.851-92.28
	c54.67,0,99.13,44.6,99.13,99.63V315H1910.93z"/>
<path fill="#FFFFFF" d="M1312.55,744.98c0-3.2,0.15-6.37,0.45-9.5v19C1312.7,751.35,1312.55,748.18,1312.55,744.98z"/>
<path fill="#FFFFFF" d="M1510.02,735H1510v-0.21C1510.01,734.86,1510.01,734.93,1510.02,735z"/>
<path fill="#FFFFFF" d="M1611.77,314.84c0-2.37,0.061-4.71,0.23-7.04v13.17C1611.86,318.94,1611.77,316.9,1611.77,314.84z"/>
<path fill="#FFFFFF" d="M1612,727.38c0.5,5.8,0.76,11.67,0.76,17.601c0,5.93-0.26,11.8-0.76,17.6V727.38z"/>
<path fill="none" d="M1612.02,489.04h-0.01c0-0.01-0.01-0.01-0.01-0.01v0.01v0.15"/>
<path fill="none" d="M1612.02,489.04h-0.01H1612c0,0,0,0.01,0.01,0.01"/>
<path fill="none" d="M1612,489.04h0.01c0,0,0,0,0,0.01C1612,489.05,1612,489.04,1612,489.04"/>
<line fill="none" x1="1612" y1="322" x2="1612" y2="321"/>
<rect x="613" y="312" width="100" height="433"/>
<rect x="1213" y="329" width="100" height="432"/>
<rect x="1510" y="303" width="102" height="432"/>
<path fill="#FFFFFF" d="M714.21,314.84c0,7.47-0.41,14.85-1.21,22.11v-44.22C713.8,299.99,714.21,307.37,714.21,314.84z"/>
<path fill="#FFFFFF" d="M913,296.04v37.6c-0.58-6.19-0.87-12.46-0.87-18.8C912.13,308.5,912.42,302.23,913,296.04z"/>
<rect x="913" y="318" width="100" height="433"/>
<path fill="#FFFFFF" d="M1013,735.47c0.26,4.141,0.39,8.32,0.39,12.53s-0.13,8.39-0.39,12.53V735.47z"/>
<path fill="#FFFFFF" d="M1212.32,744.98c0-5.601,0.229-11.141,0.68-16.631v33.261C1212.55,756.12,1212.32,750.58,1212.32,744.98z"/>
</svg>
