<?xml version="1.0" encoding="utf-8"?>
<!-- Generator: Adobe Illustrator 16.0.0, SVG Export Plug-In . SVG Version: 6.00 Build 0)  -->
<!DOCTYPE svg PUBLIC "-//W3C//DTD SVG 1.1//EN" "http://www.w3.org/Graphics/SVG/1.1/DTD/svg11.dtd">
<svg version="1.1" id="Layer_1" xmlns="http://www.w3.org/2000/svg" xmlns:xlink="http://www.w3.org/1999/xlink" x="0px" y="0px"
	 width="1920px" height="1080px" viewBox="0 0 1920 1080" enable-background="new 0 0 1920 1080" xml:space="preserve">
<circle display="none" fill="#FFFFFF" stroke="#FFA500" stroke-width="100" stroke-miterlimit="10" cx="215.24" cy="743.423" r="148.926"/>
<circle display="none" fill="#FFFFFF" stroke="#000000" stroke-width="100" stroke-miterlimit="10" cx="513.091" cy="316.792" r="148.925"/>
<circle display="none" fill="#FFFFFF" stroke="#000000" stroke-width="100" stroke-miterlimit="10" cx="811.732" cy="743.423" r="148.926"/>
<line display="none" fill="none" stroke="#FFA500" stroke-width="100" stroke-miterlimit="10" x1="364" y1="317" x2="364" y2="740"/>
<circle display="none" fill="#FFFFFF" stroke="#000000" stroke-width="100" stroke-miterlimit="10" cx="512.881" cy="316.792" r="148.926"/>
<line display="none" fill="none" stroke="#000000" stroke-width="100" stroke-miterlimit="10" x1="662" y1="323" x2="662" y2="746"/>
<line display="none" fill="none" stroke="#000000" stroke-width="100" stroke-miterlimit="10" x1="960" y1="323" x2="960" y2="746"/>
<circle display="none" fill="#FFFFFF" stroke="#000000" stroke-width="100" stroke-miterlimit="10" cx="810.732" cy="743.423" r="148.926"/>
<circle display="none" fill="#FFFFFF" stroke="#000000" stroke-width="100" stroke-miterlimit="10" cx="1109.583" cy="316.792" r="148.925"/>
<line display="none" fill="none" stroke="#000000" stroke-width="100" stroke-miterlimit="10" x1="1258" y1="323" x2="1258" y2="746"/>
<circle display="none" fill="#FFFFFF" stroke="#000000" stroke-width="100" stroke-miterlimit="10" cx="1408.864" cy="743.423" r="148.926"/>
<circle display="none" fill="#FFFFFF" stroke="#000000" stroke-width="100" stroke-miterlimit="10" cx="1109.013" cy="316.792" r="148.925"/>
<line display="none" fill="none" stroke="#000000" stroke-width="100" stroke-miterlimit="10" x1="1556" y1="323" x2="1556" y2="746"/>
<circle display="none" fill="#FFFFFF" stroke="#000000" stroke-width="100" stroke-miterlimit="10" cx="1406.864" cy="743.423" r="148.926"/>
<circle display="none" fill="#FFFFFF" stroke="#000000" stroke-width="100" stroke-miterlimit="10" cx="1704.715" cy="316.792" r="148.925"/>
<path fill="#FEA22E" d="M852.007,580.544c0,0.17-0.001,0.342-0.004,0.512v-1.024C852.006,580.202,852.007,580.374,852.007,580.544z"
	/>
<path fill="#FEA22E" d="M852.001,581.142c0.001-0.028,0.001-0.058,0.001-0.086v0.086H852.001z"/>
<path fill="#FFFFFF" d="M852.007,580.544c0,0.17-0.001,0.342-0.004,0.512v-1.024C852.006,580.202,852.007,580.374,852.007,580.544z"
	/>
<path d="M1068.787,578.529c0.002,0.014,0.002,0.028,0.004,0.041h-0.004V578.529z"/>
<path fill="#FFFFFF" d="M1068.791,578.57h-0.004v-0.041C1068.789,578.543,1068.789,578.557,1068.791,578.57z"/>
<line fill="none" x1="1088.962" y1="529.949" x2="1088.962" y2="529.92"/>
<path fill="none" d="M1088.962,503.626c0.1,8.782,0.1,17.683,0.004,26.294"/>
<path fill="none" d="M1088.966,529.92h-0.002h-0.002c0,0,0,0.003,0.002,0.003"/>
<path fill="none" d="M1088.962,529.92h0.002c0,0,0,0,0,0.003C1088.962,529.923,1088.962,529.92,1088.962,529.92"/>
<path d="M1068.787,578.529c0.002,0.014,0.002,0.028,0.004,0.041h-0.004V578.529z"/>
<path fill="#FFFFFF" d="M770.116,433.191V646.81h379.767V433.191H770.116z M1148.103,495.498c-0.004,0-0.009,0.002-0.015,0.002
	c0-0.002,0-0.004,0-0.004h-19.962v-0.032c0-10.885-8.795-19.706-19.608-19.706c-10.326,0-18.813,8.046-19.552,18.252
	c-0.002,0.02-0.004,0.042-0.004,0.062c-0.034,0.461-0.046,0.924-0.046,1.393c0,0.408,0.018,0.811,0.046,1.212v87.349
	c-1.763,20.258-18.751,36.15-39.452,36.15c-20.767,0-37.799-15.993-39.469-36.343v-88.337h-0.197v-0.032
	c0-10.885-8.771-19.706-19.582-19.706c-10.813,0-19.581,8.821-19.581,19.706v0.032h-0.198v88.124
	c-1.277,20.732-18.484,37.152-39.525,37.152c-21.599,0-39.157-17.303-39.592-38.813v-84.571c0.062-0.633,0.093-1.276,0.093-1.925
	c0-0.188-0.002-0.375-0.009-0.562c-0.298-10.625-9.011-19.145-19.72-19.145c-10.894,0-19.726,8.821-19.726,19.706v85.591
	c0,0.028,0,0.058-0.001,0.086c-0.319,21.613-17.926,39.034-39.597,39.034c-21.805,0-39.494-17.635-39.601-39.43h20.023
	c0.107,10.791,8.831,19.506,19.578,19.506c10.745,0,19.469-8.715,19.576-19.506h0.045v-85.448h0.155
	c0.087-21.811,17.784-39.466,39.601-39.466c20.393,0,37.189,15.428,39.363,35.259v90.051h0.039c0,10.884,8.809,19.708,19.675,19.708
	c10.867,0,19.677-8.824,19.677-19.708h0.167v-89.396c1.874-20.144,18.811-35.914,39.431-35.914
	c21.872,0,39.603,17.745,39.603,39.632c0,0.941-0.033,1.875-0.098,2.8h0.183v80.4c-0.06,0.619-0.089,1.245-0.089,1.879
	c0,0.633,0.029,1.26,0.089,1.878c0.94,10.003,9.307,17.83,19.489,17.83c10.813,0,19.578-8.823,19.578-19.708
	c0-0.667-0.035-1.325-0.098-1.975c-0.002-0.013-0.002-0.027-0.004-0.041v-85.406h0.167c1.21-20.797,18.455-37.29,39.54-37.29
	c21.872,0,39.608,17.745,39.608,39.632V495.498z"/>
<rect x="709.162" y="0" fill="#FFFFFF" width="489.277" height="437.423"/>
<rect x="1148.673" y="0" fill="#FFFFFF" width="771.327" height="1080"/>
<rect x="718.039" y="642.862" fill="#FFFFFF" width="489.808" height="437.139"/>
<rect x="-0.001" y="0" fill="#FFFFFF" width="772.321" height="1080"/>
</svg>
